<?xml version="1.0" encoding="utf-8"?>
<!-- Generator: Adobe Illustrator 23.0.2, SVG Export Plug-In . SVG Version: 6.00 Build 0)  -->
<svg version="1.1" id="Layer_1" xmlns="http://www.w3.org/2000/svg" xmlns:xlink="http://www.w3.org/1999/xlink" x="0px" y="0px"
	 viewBox="0 0 11.2 12.6" style="enable-background:new 0 0 11.2 12.6;" xml:space="preserve">
<style type="text/css">
	.st0{fill:#191E22;}
	.st1{fill:#FFFFFF;}
</style>
<g transform="translate(206.851 231.1)">
	<g transform="translate(-206.85 -231.1)">
		<path class="st0" d="M0,12.2V0.4C0,0.2,0.2,0,0.4,0h4.3c3.9,0,6.6,2.6,6.6,6.3s-2.7,6.3-6.6,6.3H0.4C0.2,12.6,0,12.4,0,12.2
			C0,12.2,0,12.2,0,12.2z"/>
		<path class="st1" d="M2.5,4.7c0-0.1,0.1-0.2,0.2-0.1h1.4c0.1,0,0.2,0.1,0.2,0.1c0,0,0,0.1,0,0.1L2.6,7.5c-0.1,0.1-0.1,0.2,0,0.3
			l1.9,2.7c0.1,0.1,0,0.2-0.1,0.3c0,0-0.1,0-0.1,0H2.9c-0.1,0-0.2-0.1-0.3-0.2L0.8,7.8c-0.1-0.1-0.1-0.2,0-0.3L2.5,4.7z"/>
	</g>
</g>
</svg>
